<svg xmlns="http://www.w3.org/2000/svg" width="256" height="320" viewBox="0 0 256 320">
<rect width="256" height="320" fill="#5C5240"></rect>
<path d="M0,0 L256,0 L256,206 L0,288 Z" fill="#6B604A"></path>
<path d="M152,0 L256,0 L256,320 L198,320 Z" fill="#514838"></path>
<ellipse cx="120" cy="140" rx="122" ry="150" fill="#766A50" opacity="0.5"></ellipse>
<path d="M30,320 L44,252 Q59,226 95,216 L161,216 Q197,226 212,252 L226,320 Z" fill="#33302B"></path>
<path d="M30,320 L44,252 Q59,226 95,216 L118,222 L100,320 Z" fill="#3E3A33"></path>
<path d="M95,216 L120,238 L106,320 L72,320 L81,242 Z" fill="#26231E"></path>
<path d="M161,216 L136,238 L150,320 L186,320 L176,242 Z" fill="#1D1B16"></path>
<path d="M120,238 L128,226 L136,238 L140,320 L116,320 Z" fill="#8A5F2A"></path>
<path d="M128,226 L136,238 L140,320 L128,320 Z" fill="#6E4B20"></path>
<path d="M118,252 L138,252 L139,258 L117,258 Z" fill="#C9A855"></path>
<path d="M119,270 L137,270 L138,276 L118,276 Z" fill="#C9A855"></path>
<path d="M112,184 L144,184 L146,222 L128,234 L110,222 Z" fill="#7C5537"></path>
<path d="M144,184 L146,222 L128,234 L128,206 Z" fill="#5F3F28"></path>
<path d="M112,184 L144,184 L144,196 Q128,206 112,196 Z" fill="#553921"></path>
<path d="M128,62 C166,62 177,96 174,132 C171,168 151,193 128,193 C105,193 85,168 82,132 C79,96 90,62 128,62 Z" fill="#8A5F3B"></path>
<path d="M128,62 C166,62 177,96 174,132 C171,168 151,193 128,193 C140,189 156,171 160,134 C164,97 154,68 128,62 Z" fill="#6B4527"></path>
<path d="M90,76 C98,68 111,62 128,62 L128,68 C113,68 100,72 92,80 Z" fill="#96693F"></path>
<path d="M82,128 C75,127 71,133 73,139 C75,145 81,147 85,143 Z" fill="#8A5F3B"></path>
<path d="M174,128 C181,127 185,133 183,139 C181,145 175,147 171,143 Z" fill="#6B4527"></path>
<path d="M84,146 L88,158 L82,158 Z" fill="#C9A855"></path>
<path d="M172,146 L176,158 L170,158 Z" fill="#C9A855"></path>
<path d="M128,40 C182,40 198,88 192,130 L178,126 C183,94 165,62 128,62 C91,62 73,94 78,126 L64,130 C58,88 74,40 128,40 Z" fill="#1E1813"></path>
<path d="M128,40 C150,40 167,49 177,63 C165,52 148,47 128,47 Z" fill="#33291F"></path>
<path d="M64,130 C58,100 66,64 88,50 C72,72 71,104 78,126 Z" fill="#16110D"></path>
<path d="M192,130 C198,100 190,64 168,50 C184,72 185,104 178,126 Z" fill="#16110D"></path>
<path d="M76,58 C84,50 94,45 104,42 L100,50 C92,53 84,58 79,64 Z" fill="#33291F"></path>
<path d="M148,42 C158,45 168,51 175,59 L169,63 C163,56 155,50 146,48 Z" fill="#33291F"></path>
<path d="M94,110 L118,107 L118,113 L95,116 Z" fill="#2B1D12"></path>
<path d="M138,107 L162,110 L161,116 L138,113 Z" fill="#2B1D12"></path>
<path d="M98,122 C104,118 112,118 116,122 L116,126 C110,123 104,123 98,126 Z" fill="#6E4A2C"></path>
<path d="M140,122 C144,118 152,118 158,122 L158,126 C152,123 145,123 140,126 Z" fill="#5A3B22"></path>
<path d="M100,129 C104,126 111,126 114,129 C111,132 104,132 100,129 Z" fill="#150F0A"></path>
<path d="M142,129 C145,126 152,126 156,129 C152,132 145,132 142,129 Z" fill="#150F0A"></path>
<path d="M102,127 L112,127 L111,129 L103,129 Z" fill="#3A2A1A"></path>
<path d="M146,127 L156,127 L155,129 L147,129 Z" fill="#3A2A1A"></path>
<path d="M126,128 L121,156 L128,158 L135,158 L130,150 Z" fill="#5F3F28"></path>
<path d="M121,156 L128,161 L135,158 L133,163 L122,162 Z" fill="#4E3220"></path>
<path d="M108,146 C112,150 118,152 122,152 L121,156 C116,156 111,153 107,149 Z" fill="#6E4A2C"></path>
<path d="M148,148 C144,152 138,154 134,154 L135,158 C140,158 145,154 149,151 Z" fill="#5A3B22"></path>
<path d="M111,171 Q128,176 145,170 L144,175 Q128,180 112,176 Z" fill="#3F2417"></path>
<path d="M115,180 Q128,185 141,180 L139,185 Q128,188 117,185 Z" fill="#7A4B34"></path>
<path d="M118,164 Q128,167 138,164 L137,167 Q128,169 119,167 Z" fill="#6E4A2C"></path>
<path d="M104,222 Q128,214 152,222 L150,232 Q128,224 106,232 Z" fill="#8A5F2A"></path>
<path d="M128,217 L152,222 L150,232 Q139,228 128,227 Z" fill="#6E4B20"></path>
</svg>